,
Brought to you by  http://www.scenetime.com/signup.php
 
 Hottest scene tracker on the net !!!   
 
No fake torrents from scenebalance 
shame on those who comment fake before downloading my torrents

    seed back for speed


 



...................................NFO:.................................................General 
Complete name : Biutiful 2010 BRRip 720p Xvid AC3-Freebee.avi 
Format : AVI 
Format/Info : Audio Video Interleave 
Format profile : OpenDML 
File size : 2.80 GiB 
Duration : 2h 28mn 
Overall bit rate : 2 710 Kbps 

Video 
ID : 0 
Format : MPEG-4 Visual 
Format profile : Advanced Simple@L5 
Format settings, BVOP : 2 
Format settings, QPel : Yes 
Format settings, GMC : No warppoints 
Format settings, Matrix : Default (MPEG) 
Codec ID : XVID 
Codec ID/Hint : XviD 
Duration : 2h 28mn 
Bit rate : 2 251 Kbps 
Width : 1 280 pixels 
Height : 688 pixels 
Display aspect ratio : 1.860 
Frame rate : 23.976 fps 
Color space : YUV 
Chroma subsampling : 4:2:0 
Bit depth : 8 bits 
Scan type : Progressive 
Compression mode : Lossy 
Bits/(Pixel*Frame) : 0.107 
Stream size : 2.33 GiB (83%) 

Audio 
ID : 1 
Format : AC-3 
Format/Info : Audio Coding 3 
Mode extension : CM (complete main) 
Codec ID : 2000 
Duration : 2h 28mn 
Bit rate mode : Constant 
Bit rate : 448 Kbps 
Channel(s) : 6 channels 
Channel positions : Front: L C R, Side: L R, LFE 
Sampling rate : 48.0 KHz 
Bit depth : 16 bits 
Compression mode : Lossy 
Stream size : 475 MiB (17%) 
Alignment : Split accross interleaves 
Interleave, duration : 42 ms (1.00 video frame) 
Interleave, preload duration : 500 ms 


   
              Language.............: Spanish
              Subtitle.............: English (hard coded)
              Imdb-Rating..........: 7.6/10
              Imdb.................: http://www.imdb.com/title/tt1164999/
              Video-Source.........: CHD....Thanks!
              Audio-Source.........: CHD....Thanks!
              Encoder..............: Freebee269
              Plot.................: This is a story of a man in free fall.
 On the road to redemption, darkness lights his way. Connected with the
 afterlife, Uxbal is a tragic hero and father of two who's sensing the
 danger of death. He struggles with a tainted reality and a fate that
 works against him in order to forgive, for love, and forever.
   
                    
                    Sample Included
                    


                    
                    Greets: All P2P Groups!
                    

 
                                          
                           Respects                  
                    
                     SANTi, TOXiCiNK, LKRG 
                    NPW, FLAWL3SS, BDK, CM8
                      IMAGiNE, ViSiON, Rx  
                          Legion, *THC*